<svg xmlns="http://www.w3.org/2000/svg" viewBox="0 0 139 70" width="139" height="70">
	<defs>
		<clipPath clipPathUnits="userSpaceOnUse" id="cp1">
			<path d="M10.38 10.97L128.38 10.97L128.38 59.97L10.38 59.97L10.38 10.97Z" />
		</clipPath>
	</defs>
	<style>
		tspan { white-space:pre }
		.shp0 { fill: #000000 } 
	</style>
	<g id="Clip-Path" clip-path="url(#cp1)">
		<g id="Layer">
			<path id="Layer" fill-rule="evenodd" class="shp0" d="M108.42 33.54L96.04 33.54L96.04 20.2C96.04 20.07 96 20.03 95.87 20.03L92.19 20.03C92.16 20.03 92.13 20.04 92.1 20.05C92.08 20.06 92.05 20.07 92.03 20.1C92.01 20.12 91.99 20.14 91.98 20.17C91.97 20.2 91.97 20.23 91.97 20.26L91.97 36.65C91.97 36.68 91.97 36.71 91.98 36.73C91.99 36.76 92.01 36.79 92.03 36.81C92.05 36.83 92.08 36.85 92.1 36.86C92.13 36.87 92.16 36.87 92.19 36.87L108.42 36.87C108.45 36.87 108.48 36.87 108.51 36.86C108.54 36.85 108.56 36.83 108.58 36.81C108.6 36.79 108.62 36.76 108.63 36.73C108.64 36.71 108.65 36.68 108.64 36.65L108.64 33.79C108.65 33.76 108.64 33.73 108.63 33.7C108.62 33.68 108.6 33.65 108.58 33.63C108.56 33.61 108.54 33.59 108.51 33.58C108.48 33.57 108.45 33.56 108.42 33.56L108.42 33.54Z" />
			<path id="Layer" fill-rule="evenodd" class="shp0" d="M35.37 23L35.37 36.68C35.37 36.8 35.41 36.85 35.54 36.85L39.28 36.85C39.41 36.85 39.45 36.8 39.45 36.68L39.45 20.09C39.09 20.09 38.76 20.69 38.53 20.91C38.24 21.21 37.92 21.48 37.58 21.73C37.24 21.98 36.89 22.21 36.51 22.4C36.27 22.54 35.36 22.82 35.36 23L35.37 23Z" />
			<path id="Layer" fill-rule="evenodd" class="shp0" d="M66.38 23.79C66.38 20.54 68.38 20.11 70.85 20.02L83.34 20.02C85.72 20.02 87.19 21.03 87.19 23.38L87.19 32.81C87.19 35.87 86.12 36.85 83.06 36.85L70.37 36.85L68.84 36.72C68.25 36.34 67.41 36.5 66.94 35.59C66.53 34.84 66.33 34 66.35 33.15L66.35 23.79L66.38 23.79ZM70.43 33.54L83.15 33.54L83.15 23.17L70.43 23.17L70.43 33.54Z" />
			<path id="Layer" fill-rule="evenodd" class="shp0" d="M13.05 20.03C13.14 20.03 19.35 25.17 19.9 25.68L26.62 31.39L26.62 20.26C26.62 20.13 26.68 20.03 26.81 20.03C27.14 20.64 30.44 23.09 30.23 22.78L30.23 36.68C30.23 36.8 30.19 36.85 30.06 36.85L27.57 36.85C27.5 36.85 21.2 31.67 20.68 31.17C20.17 30.67 19.5 30.16 18.96 29.74C18.42 29.31 17.85 28.75 17.24 28.3C16.82 28 13.92 25.42 13.88 25.41L13.91 36.66C13.91 36.78 13.88 36.83 13.75 36.83L10.38 36.85L10.38 20.03L13.05 20.03Z" />
			<path id="Layer" fill-rule="evenodd" class="shp0" d="M58.67 26.25L58.67 23.17L48.32 23.17L48.32 33.54L58.67 33.54L58.67 30.06L62.65 30.74C62.72 30.84 62.76 30.84 62.76 30.96L62.76 32.25C62.76 35.64 62.05 36.85 58.63 36.85L48.43 36.85C47.52 36.88 46.61 36.73 45.77 36.39C45.42 36.25 45.12 36.03 44.9 35.74C44.63 35.38 44.6 35.02 44.4 34.72L44.19 32.87L44.23 24.01C44.23 22.75 44.47 21.6 45.09 20.94C45.63 20.37 47 20.03 48.13 20.03L58.72 20.03C62 20.03 62.74 21.38 62.74 24.63L62.74 25.52L58.67 26.25Z" />
			<path id="Layer" fill-rule="evenodd" class="shp0" d="M128.21 33.54C128.34 33.54 128.38 33.58 128.38 33.71L128.38 36.68C128.38 36.8 128.34 36.85 128.21 36.85L110.97 36.85C110.93 36.76 110.91 36.66 110.91 36.57L110.91 20.31C110.91 20.02 110.97 20.03 111.22 20.03L128.21 20.03C128.25 20.12 128.27 20.21 128.27 20.31L128.27 23C128.18 23.04 128.08 23.06 127.99 23.06L114.98 23.06L114.98 26.59L122.56 26.59C122.69 26.59 122.73 26.63 122.73 26.76L122.73 29.4C122.73 29.53 122.69 29.57 122.56 29.57L114.98 29.57L114.98 33.55L128.21 33.54Z" />
			<path id="Layer" fill-rule="evenodd" class="shp0" d="M35.37 23C35.37 22.82 36.28 22.54 36.52 22.4C36.9 22.21 37.25 21.98 37.59 21.73C37.92 21.48 38.23 21.21 38.52 20.91C38.75 20.69 39.06 20.1 39.44 20.09L39.44 36.68C39.44 36.8 39.4 36.85 39.27 36.85L35.54 36.85C35.4 36.85 35.37 36.8 35.37 36.68L35.37 23L35.37 23Z" />
			<path id="Layer" fill-rule="evenodd" class="shp0" d="M33.06 10.97C34 10.97 34.92 11.25 35.7 11.77C36.49 12.29 37.1 13.02 37.46 13.89C37.82 14.75 37.92 15.7 37.73 16.62C37.55 17.53 37.1 18.37 36.43 19.03C35.76 19.69 34.91 20.14 33.99 20.33C33.06 20.51 32.11 20.41 31.24 20.06C30.37 19.7 29.62 19.09 29.1 18.31C28.58 17.54 28.3 16.62 28.3 15.69C28.3 14.44 28.8 13.24 29.69 12.36C30.58 11.47 31.79 10.97 33.06 10.97Z" />
			<path id="Layer" fill-rule="evenodd" class="shp0" d="M35.11 49.97L39.96 49.97L39.96 49.44C39.96 49.32 39.93 49.29 39.81 49.29L35.86 49.29L35.86 47.59L39.71 47.59C39.83 47.59 39.86 47.56 39.86 47.44L39.86 47C39.86 46.88 39.83 46.85 39.71 46.85L35.86 46.85L35.86 45.34L39.81 45.34C39.93 45.34 39.96 45.31 39.96 45.19L39.96 44.74C39.96 44.63 39.93 44.6 39.81 44.6L35.11 44.6L35.11 49.97Z" />
			<path id="Layer" fill-rule="evenodd" class="shp0" d="M17.57 49.97L22.42 49.97L22.42 49.28L18.33 49.28L18.33 47.59L22.32 47.59L22.32 47C22.32 46.88 22.29 46.85 22.17 46.85L18.33 46.85L18.33 45.34L22.27 45.34C22.38 45.34 22.42 45.31 22.42 45.19L22.42 44.74C22.42 44.63 22.38 44.6 22.27 44.6L17.72 44.6C17.61 44.6 17.57 44.63 17.57 44.74L17.57 49.95L17.57 49.97Z" />
			<path id="Layer" fill-rule="evenodd" class="shp0" d="M41.85 49.97L46.54 49.97L46.54 49.27L42.6 49.27L42.6 44.77C42.6 44.65 42.56 44.62 42.44 44.62L42.01 44.62C41.89 44.62 41.86 44.65 41.86 44.77L41.86 49.97L41.85 49.97Z" />
			<path id="Layer" fill-rule="evenodd" class="shp0" d="M54.9 49.97L59.74 49.97L59.74 49.28L55.65 49.28L55.65 47.59L59.64 47.59L59.64 46.92L55.8 46.92C55.68 46.92 55.65 46.89 55.65 46.77L55.65 45.34L59.74 45.34L59.74 44.6L55.05 44.6C54.93 44.6 54.9 44.63 54.9 44.74L54.9 49.95L54.9 49.97Z" />
			<path id="Layer" fill-rule="evenodd" class="shp0" d="M23.8 44.64L24.57 44.62L26.47 49.17L28.35 44.62L29.14 44.62L30.92 49.17L32.82 44.62L33.65 44.63L31.47 49.97L30.44 49.96L28.77 45.66L28.67 45.66L26.92 49.97L25.99 49.95L23.8 44.64Z" />
			<path id="Layer" fill-rule="evenodd" class="shp0" d="M54.9 44.77C54.9 44.65 54.93 44.62 55.05 44.62L59.74 44.62L59.74 45.34L55.65 45.34L55.65 46.73C55.65 46.84 55.68 46.87 55.8 46.87L59.64 46.87L59.64 47.57L55.65 47.57L55.65 49.25L59.74 49.25L59.74 49.95L54.9 49.95L54.9 44.77Z" />
			<path id="Layer" fill-rule="evenodd" class="shp0" d="M51.41 58.34C51.41 59.21 51.89 59.97 52.66 59.97L56.46 59.97C56.77 59.97 57.06 59.86 57.29 59.66C57.52 59.46 57.67 59.19 57.71 58.89L57.71 58.15C57.71 55.79 52.11 57.75 52.11 56.36L52.11 56.16C52.11 55.5 52.46 55.37 53.11 55.37L56.06 55.37C56.98 55.37 56.91 56.31 57.13 56.31L57.58 56.31C57.69 56.31 57.73 56.28 57.73 56.16C57.73 55.2 56.96 54.63 55.98 54.63L53.26 54.63C52.08 54.63 51.37 54.99 51.37 56.16L51.37 56.44C51.37 58.76 56.96 56.59 56.96 58.17L56.96 58.57C56.96 59.03 56.58 59.26 56.11 59.26L53.01 59.26C52.02 59.26 52.27 58.32 52.02 58.32L51.41 58.34Z" />
			<path id="Layer" fill-rule="evenodd" class="shp0" d="M82.29 59.97L87.09 59.97L87.09 59.28L83.05 59.28L83.05 57.6L87.05 57.6L87.05 56.91L83.05 56.91L83.05 55.38L86.94 55.38C87.06 55.38 87.09 55.35 87.09 55.23L87.09 54.79C87.09 54.67 87.06 54.64 86.94 54.64L82.45 54.64C82.33 54.64 82.3 54.67 82.3 54.79L82.3 59.99L82.29 59.97Z" />
			<path id="Layer" fill-rule="evenodd" class="shp0" d="M61.75 59.97L62.51 59.97L62.51 55.38L64.91 55.38C65.02 55.38 65.06 55.35 65.06 55.23L65.06 54.63L59.36 54.63C59.24 54.63 59.21 54.66 59.21 54.78L59.21 55.22C59.21 55.34 59.24 55.37 59.36 55.37L61.75 55.37L61.75 59.97Z" />
			<path id="Layer" fill-rule="evenodd" class="shp0" d="M51.41 58.34L52.02 58.34C52.27 58.34 52.02 59.28 53.01 59.28L56.11 59.28C56.58 59.28 56.96 59.05 56.96 58.59L56.96 58.19C56.96 56.61 51.37 58.78 51.37 56.46L51.37 56.16C51.37 54.99 52.08 54.63 53.26 54.63L55.96 54.63C56.94 54.63 57.71 55.2 57.71 56.16C57.71 56.28 57.67 56.31 57.56 56.31L57.11 56.31C56.91 56.31 56.98 55.37 56.04 55.37L53.11 55.37C52.46 55.37 52.11 55.5 52.11 56.16L52.11 56.36C52.11 57.75 57.71 55.79 57.71 58.15L57.71 58.89C57.67 59.19 57.52 59.46 57.29 59.66C57.06 59.86 56.77 59.97 56.46 59.97L52.66 59.97C51.89 59.97 51.41 59.21 51.41 58.34Z" />
			<path id="Layer" fill-rule="evenodd" class="shp0" d="M74.7 54.65L78.44 54.65C79.05 54.61 79.66 54.81 80.13 55.21C80.26 55.35 80.35 55.52 80.41 55.7C80.47 55.88 80.5 56.07 80.48 56.26L80.48 56.32C80.48 56.65 80.38 56.97 80.18 57.24C79.84 57.65 79.89 57.3 80.18 57.81C80.32 58.08 80.38 58.39 80.37 58.69L80.37 60.03L79.61 60.03L79.61 58.49C79.61 57.93 79.25 57.96 78.81 57.9L75.44 57.9L75.44 59.97L74.7 59.97L74.7 54.63L74.7 54.65ZM78.97 55.38L75.44 55.38L75.44 57.22L78.31 57.22C78.6 57.22 78.88 57.19 79.16 57.11C79.35 57.06 79.51 56.94 79.61 56.78C79.7 56.64 79.74 56.48 79.74 56.31L79.74 56.06C79.73 55.87 79.64 55.7 79.49 55.57C79.35 55.44 79.16 55.37 78.97 55.38Z" />
			<path id="Layer" fill-rule="evenodd" class="shp0" d="M66.56 56.44C66.56 55.38 67.15 54.6 68.2 54.6L71 54.6C72.23 54.6 72.9 55.13 72.9 56.34L72.9 57.97C72.9 59.03 72.7 60 71.65 60L68.06 60C67.68 60 67.31 59.86 67.03 59.6C66.75 59.34 66.58 58.99 66.56 58.62L66.56 56.44ZM67.3 58.29C67.29 58.42 67.3 58.55 67.34 58.67C67.37 58.79 67.44 58.9 67.52 58.99C67.61 59.09 67.72 59.16 67.83 59.21C67.95 59.26 68.08 59.29 68.2 59.28L70.95 59.28C71.74 59.28 72.15 59.18 72.15 58.39L72.15 56.31C72.15 55.72 71.9 55.32 71.3 55.32L68.4 55.32C67.76 55.32 67.3 55.61 67.3 56.21L67.3 58.29Z" />
			<path id="Layer" fill-rule="evenodd" class="shp0" d="M61.75 55.38L59.36 55.38C59.24 55.38 59.21 55.35 59.21 55.23L59.21 54.79C59.21 54.67 59.24 54.64 59.36 54.64L65.06 54.64L65.06 55.22C65.06 55.34 65.02 55.37 64.91 55.37L62.51 55.37L62.51 59.97L61.75 59.97L61.75 55.38Z" />
			<path id="Layer" fill-rule="evenodd" class="shp0" d="M71.53 47.54L68.73 44.62L69.68 44.62L71.93 46.85L74.13 44.62L75.13 44.62L72.33 47.54L72.33 49.97L71.53 49.97L71.53 47.54Z" />
			<path id="Layer" fill-rule="evenodd" class="shp0" d="M10.38 48.68L10.38 48.09L10.98 48.09C11.35 48.09 10.74 49.27 12.08 49.27L14.18 49.27C14.31 49.28 14.44 49.26 14.56 49.21C14.68 49.16 14.79 49.09 14.88 48.99C14.97 48.9 15.04 48.79 15.08 48.66C15.13 48.54 15.14 48.41 15.13 48.28L15.13 44.62L15.82 44.62C15.82 45.73 15.82 46.84 15.82 47.95C15.82 48.85 15.61 49.96 14.42 49.96L11.75 49.96C11.4 49.96 11.06 49.83 10.81 49.59C10.55 49.35 10.4 49.02 10.38 48.68L10.38 48.68Z" />
			<path id="Layer" fill-rule="evenodd" class="shp0" d="M61.65 44.6L65.38 44.6C66 44.57 66.6 44.77 67.07 45.17C67.32 45.46 67.45 45.84 67.42 46.22L67.42 46.27C67.42 46.63 67.29 46.97 67.07 47.26C67 47.34 66.92 47.41 66.83 47.47C66.93 47.51 67.02 47.58 67.1 47.65C67.3 47.95 67.38 48.3 67.33 48.65L67.33 49.99L66.58 49.99L66.58 48.51C66.58 47.95 66.21 47.98 65.78 47.91L62.39 47.91L62.39 49.99L61.64 49.99L61.64 44.62L61.65 44.6ZM65.91 45.34L62.39 45.34L62.39 47.17L65.34 47.17C65.45 47.18 65.55 47.18 65.66 47.17C65.95 47.17 66.23 47.07 66.45 46.89C66.6 46.73 66.69 46.51 66.69 46.28L66.69 46.04C66.68 45.85 66.59 45.66 66.44 45.53C66.3 45.4 66.11 45.33 65.91 45.34Z" />
			<path id="Layer" fill-rule="evenodd" class="shp0" d="M48.4 49.97L53.1 49.97L53.1 49.27L49.15 49.27L49.15 44.77C49.15 44.65 49.11 44.62 49 44.62L48.55 44.62C48.44 44.62 48.4 44.65 48.4 44.77L48.4 49.97Z" />
			<path id="Layer" fill-rule="evenodd" class="shp0" d="M90.22 44.64L90.99 44.62L92.88 49.17L94.76 44.62L95.56 44.62L97.34 49.17L99.24 44.62L100.06 44.63L97.89 49.97L96.85 49.96L95.18 45.66L95.08 45.66L93.33 49.97L92.41 49.95L90.22 44.64Z" />
			<path id="Layer" fill-rule="evenodd" class="shp0" d="M100.27 49.97L103.12 44.63L104.38 44.63L107.3 49.97L106.38 49.97L105.79 48.87L101.84 48.87L101.21 49.97L100.27 49.97ZM105.5 48.34L103.77 45.07L102.04 48.34L105.5 48.34Z" />
			<path id="Layer" fill-rule="evenodd" class="shp0" d="M110.28 45.34L107.89 45.34C107.77 45.34 107.73 45.31 107.73 45.19L107.73 44.74C107.73 44.63 107.77 44.6 107.89 44.6L113.58 44.6L113.58 45.19C113.58 45.31 113.55 45.34 113.43 45.34L111.04 45.34L111.04 49.95L110.28 49.95L110.28 45.34Z" />
			<path id="Layer" class="shp0" d="M119.88 48.19L120.78 48.19C120.81 48.47 120.77 48.75 120.65 49C120.53 49.25 120.35 49.47 120.11 49.62C119.67 49.88 118.82 50.01 117.54 50.01C116.27 50.01 115.41 49.85 114.99 49.52C114.58 49.19 114.28 48.42 114.28 47.33C114.28 46.24 114.52 45.5 114.98 45.13C115.45 44.76 116.27 44.6 117.54 44.6C118.81 44.6 119.63 44.74 120.08 45.02C120.29 45.17 120.45 45.36 120.56 45.6C120.66 45.83 120.7 46.08 120.67 46.33L119.77 46.33C119.76 46.15 119.71 45.97 119.63 45.81C119.55 45.64 119.44 45.5 119.3 45.38C118.73 45.16 118.13 45.07 117.52 45.12C116.58 45.12 115.95 45.26 115.64 45.54C115.33 45.83 115.17 46.42 115.17 47.32C115.17 48.23 115.32 48.81 115.63 49.08C115.93 49.35 116.57 49.49 117.52 49.49C118.16 49.54 118.81 49.45 119.41 49.23C119.58 49.12 119.72 48.96 119.8 48.77C119.88 48.58 119.91 48.38 119.88 48.18L119.88 48.19ZM122.7 47L127.5 47L127.5 44.65L128.41 44.65L128.41 49.94L127.5 49.94L127.5 47.52L122.7 47.52L122.7 49.96L121.79 49.96L121.79 44.67L122.7 44.67L122.7 47.02L122.7 47Z" />
			<path id="Layer" fill-rule="evenodd" class="shp0" d="M84.54 47.56L85.45 47.56L85.45 48.03C85.45 48.27 85.42 48.51 85.35 48.74L86.78 49.51L86.28 49.92L85.08 49.27C84.79 49.6 84.39 49.82 83.95 49.87C83.43 49.94 82.92 49.97 82.4 49.96C81.77 49.97 81.15 49.95 80.52 49.89C80.09 49.87 79.68 49.71 79.34 49.44C79.2 49.28 79.08 49.08 79.01 48.87C78.94 48.66 78.92 48.44 78.93 48.22C78.92 48.01 78.95 47.81 79.04 47.62C79.12 47.44 79.26 47.28 79.42 47.16C79.79 46.98 80.18 46.88 80.59 46.87C80.36 46.76 80.16 46.62 80 46.44C79.93 46.3 79.88 46.15 79.87 45.99C79.86 45.84 79.88 45.68 79.93 45.53C79.98 45.38 80.06 45.25 80.16 45.13C80.27 45.01 80.39 44.92 80.53 44.85C81.1 44.69 81.69 44.62 82.28 44.65C82.87 44.62 83.47 44.69 84.04 44.88C84.24 44.97 84.4 45.12 84.51 45.31C84.62 45.5 84.67 45.72 84.65 45.93L84.65 46.23L83.74 46.23L83.74 46.03C83.74 45.62 83.65 45.37 83.46 45.29C83.04 45.17 82.59 45.12 82.15 45.15C81.82 45.14 81.5 45.16 81.18 45.23C81.06 45.26 80.95 45.32 80.88 45.42C80.8 45.52 80.76 45.64 80.76 45.76C80.75 45.92 80.8 46.09 80.91 46.21C81.06 46.37 81.24 46.5 81.44 46.6L84.5 48.3L84.5 47.56L84.54 47.56ZM81.17 47.17C80.8 47.2 80.43 47.3 80.1 47.48C80.01 47.57 79.94 47.69 79.9 47.82C79.86 47.94 79.84 48.08 79.86 48.21C79.84 48.39 79.85 48.58 79.9 48.75C79.96 48.93 80.05 49.09 80.17 49.23C80.64 49.43 81.15 49.51 81.66 49.45L82.46 49.45C82.84 49.46 83.22 49.44 83.6 49.38C84.03 49.29 84.29 49.14 84.38 48.9L81.18 47.17L81.17 47.17Z" />
		</g>
	</g>
</svg>