<svg width="119" height="50" viewBox="0 0 119 50" fill="none" xmlns="http://www.w3.org/2000/svg">
<g clip-path="url(#clip0)">
<path fill-rule="evenodd" clip-rule="evenodd" d="M98.4204 23.5372H86.0364V10.1995C86.0364 10.0726 85.9991 10.0303 85.8657 10.0303H82.1911C82.161 10.0296 82.1311 10.035 82.1032 10.0462C82.0753 10.0574 82.0501 10.0742 82.029 10.0956C82.008 10.1169 81.9917 10.1423 81.981 10.1702C81.9703 10.1981 81.9656 10.2279 81.9671 10.2577V26.6456C81.9656 26.6754 81.9703 26.7052 81.981 26.7331C81.9917 26.761 82.008 26.7864 82.029 26.8077C82.0501 26.829 82.0753 26.8459 82.1032 26.8571C82.1311 26.8683 82.161 26.8737 82.1911 26.8729H98.4204C98.4505 26.8737 98.4804 26.8683 98.5083 26.8571C98.5362 26.8459 98.5614 26.829 98.5824 26.8077C98.6035 26.7864 98.6198 26.761 98.6305 26.7331C98.6411 26.7052 98.6459 26.6754 98.6444 26.6456V23.7909C98.6459 23.7612 98.6411 23.7314 98.6305 23.7035C98.6198 23.6756 98.6035 23.6502 98.5824 23.6289C98.5614 23.6075 98.5362 23.5907 98.5083 23.5795C98.4804 23.5683 98.4505 23.5629 98.4204 23.5636V23.5372Z" fill="black"/>
<path fill-rule="evenodd" clip-rule="evenodd" d="M25.372 13.0017V26.6777C25.372 26.8046 25.4093 26.8469 25.5427 26.8469H29.276C29.4093 26.8469 29.4467 26.8046 29.4467 26.6777V10.0889C29.0893 10.0889 28.7587 10.6915 28.5293 10.9136C28.236 11.2104 27.9185 11.4826 27.58 11.7277C27.2442 11.9824 26.8873 12.2087 26.5133 12.4043C26.268 12.5365 25.3613 12.8167 25.3613 13.0017H25.372Z" fill="black"/>
<path fill-rule="evenodd" clip-rule="evenodd" d="M60.4254 23.537H73.1454V13.1702H60.4254V23.537ZM56.3774 13.7888C56.3774 10.5429 58.3774 10.1147 60.8467 10.0195H73.3427C75.7214 10.0195 77.1881 11.0292 77.1881 13.3817V22.8074C77.1881 25.8683 76.1214 26.8463 73.0601 26.8463H60.3667L58.8414 26.7194C58.2494 26.3388 57.4121 26.5026 56.9374 25.5934C56.5346 24.8404 56.3327 23.9979 56.3507 23.1458V13.7888H56.3774Z" fill="black"/>
<path fill-rule="evenodd" clip-rule="evenodd" d="M3.04557 10.0303C3.14157 10.0303 9.35491 15.1687 9.90424 15.6762L16.6242 21.3908V10.2576C16.6242 10.1254 16.6776 10.0303 16.8109 10.0303C17.1362 10.6435 20.4429 13.0858 20.2296 12.7792V26.6773C20.2296 26.8041 20.1922 26.8464 20.0589 26.8464H17.5682C17.5042 26.8464 11.2002 21.6657 10.6829 21.1688C10.1656 20.6719 9.50424 20.1591 8.96024 19.7362C8.41624 19.3133 7.84557 18.7476 7.24291 18.3035C6.82157 17.9969 3.92024 15.4224 3.88291 15.4119L3.91491 26.6561C3.91491 26.783 3.87757 26.8253 3.74957 26.8253L0.378906 26.8464V10.0303H3.04557Z" fill="black"/>
<path fill-rule="evenodd" clip-rule="evenodd" d="M48.668 16.2524V13.1704H38.3214V23.5371H48.668V20.0639L52.6467 20.7353C52.716 20.8358 52.7587 20.8358 52.7587 20.9626V22.2472C52.7587 25.6358 52.0547 26.8464 48.6307 26.8464H38.4334C37.5216 26.8833 36.6123 26.7265 35.7667 26.3865C35.4239 26.2499 35.1239 26.0255 34.8974 25.7363C34.6254 25.3768 34.604 25.0173 34.4014 24.716L34.1934 22.871L34.2307 14.011C34.2307 12.7475 34.4654 11.5951 35.0947 10.9395C35.628 10.3686 37.004 10.0303 38.1347 10.0303H48.7214C51.996 10.0303 52.7374 11.3783 52.7374 14.6295V15.5229L48.668 16.2524Z" fill="black"/>
<path fill-rule="evenodd" clip-rule="evenodd" d="M118.21 23.5371C118.343 23.5371 118.38 23.5794 118.38 23.7063V26.6773C118.38 26.8042 118.343 26.8464 118.21 26.8464H100.967C100.93 26.7575 100.91 26.6625 100.908 26.5663V10.3105C100.908 10.025 100.972 10.0303 101.223 10.0303H118.21C118.246 10.1193 118.266 10.2143 118.268 10.3105V13.0013C118.179 13.0383 118.083 13.058 117.986 13.0594H104.983V16.5908H112.556C112.69 16.5908 112.727 16.6278 112.727 16.7599V19.4031C112.727 19.53 112.69 19.5723 112.556 19.5723H104.983V23.5477L118.21 23.5371Z" fill="black"/>
<path fill-rule="evenodd" clip-rule="evenodd" d="M25.3706 13.0017C25.3706 12.8167 26.2772 12.5365 26.5226 12.4043C26.8966 12.2087 27.2534 11.9824 27.5892 11.7277C27.9222 11.482 28.2344 11.2097 28.5226 10.9136C28.7519 10.6915 29.0559 10.0994 29.4399 10.0889V26.6777C29.4399 26.8046 29.4026 26.8469 29.2692 26.8469H25.5359C25.4026 26.8469 25.3652 26.8046 25.3652 26.6777V13.0017H25.3706Z" fill="black"/>
<path fill-rule="evenodd" clip-rule="evenodd" d="M23.0562 0.974612C23.9986 0.973567 24.9201 1.24968 25.7042 1.76801C26.4882 2.28633 27.0995 3.02356 27.4606 3.88639C27.8217 4.74922 27.9165 5.69885 27.7329 6.61508C27.5493 7.53132 27.0956 8.37297 26.4292 9.0335C25.7628 9.69403 24.9137 10.1438 23.9893 10.3257C23.065 10.5077 22.1069 10.4138 21.2364 10.0558C20.366 9.69787 19.6222 9.09197 19.0993 8.31483C18.5763 7.53769 18.2978 6.62425 18.2988 5.69012C18.2988 4.43949 18.8 3.24008 19.6922 2.35575C20.5844 1.47142 21.7944 0.974612 23.0562 0.974612Z" fill="black"/>
<path fill-rule="evenodd" clip-rule="evenodd" d="M25.1094 39.9677H29.9574V39.4391C29.9574 39.3228 29.9254 39.291 29.808 39.291H25.8614V37.5888H29.712C29.8294 37.5888 29.8614 37.5571 29.8614 37.4408V36.9967C29.8614 36.8804 29.8294 36.8487 29.712 36.8487H25.8614V35.3368H29.808C29.9254 35.3368 29.9574 35.3051 29.9574 35.1888V34.7447C29.9574 34.6337 29.9254 34.5967 29.808 34.5967H25.1094V39.9677Z" fill="black"/>
<path fill-rule="evenodd" clip-rule="evenodd" d="M7.57422 39.9677H12.4222V39.2752H8.32622V37.5888H12.3209V36.9967C12.3209 36.8804 12.2889 36.8487 12.1716 36.8487H8.32622V35.3368H12.2729C12.3849 35.3368 12.4222 35.3051 12.4222 35.1888V34.7447C12.4222 34.6337 12.3849 34.5967 12.2729 34.5967H7.72355C7.61155 34.5967 7.57422 34.6337 7.57422 34.7447V39.9466V39.9677Z" fill="black"/>
<path fill-rule="evenodd" clip-rule="evenodd" d="M31.8457 39.9671H36.5444V39.2745H32.5977V34.7652C32.5977 34.6542 32.5604 34.6172 32.443 34.6172H32.0057C31.8937 34.6172 31.8564 34.6542 31.8564 34.7652V39.9671H31.8457Z" fill="black"/>
<path fill-rule="evenodd" clip-rule="evenodd" d="M44.8965 39.9677H49.7445V39.2752H45.6485V37.5888H49.6431V36.9227H45.7978C45.6805 36.9227 45.6485 36.8857 45.6485 36.7747V35.3368H49.7445V34.5967H45.0458C44.9338 34.5967 44.8965 34.6337 44.8965 34.7447V39.9466V39.9677Z" fill="black"/>
<path fill-rule="evenodd" clip-rule="evenodd" d="M13.8027 34.6383L14.5707 34.6172L16.4694 39.1741L18.3467 34.6172H19.1414L20.9227 39.1741L22.8214 34.6172L23.6481 34.6278L21.4721 39.9671L20.4374 39.9565L18.7681 35.6586H18.6667L16.9174 39.9671L15.9894 39.9512L13.8027 34.6383Z" fill="black"/>
<path fill-rule="evenodd" clip-rule="evenodd" d="M44.8965 34.7652C44.8965 34.6542 44.9338 34.6172 45.0458 34.6172H49.7445V35.3361H45.6485V36.7265C45.6485 36.8375 45.6805 36.8745 45.7978 36.8745H49.6431V37.567H45.6485V39.2534H49.7445V39.9459H44.8965V34.7652Z" fill="black"/>
<path fill-rule="evenodd" clip-rule="evenodd" d="M41.4132 48.341C41.4132 49.2079 41.8932 49.9745 42.6612 49.9745H46.4586C46.7652 49.9745 47.0614 49.8641 47.292 49.6637C47.5225 49.4634 47.6718 49.1868 47.7119 48.8855V48.1454C47.7119 45.7876 42.1119 47.7542 42.1119 46.3638V46.1629C42.1119 45.5021 42.4639 45.37 43.1146 45.37H46.0586C46.9759 45.37 46.9119 46.311 47.1252 46.311H47.5786C47.6906 46.311 47.7279 46.2793 47.7279 46.1629C47.7279 45.1955 46.9599 44.6299 45.9786 44.6299H43.2639C42.0799 44.6299 41.3652 44.9894 41.3652 46.1629V46.4378C41.3652 48.7586 46.9599 46.5911 46.9599 48.1718V48.5683C46.9599 49.0335 46.5812 49.2608 46.1119 49.2608H43.0132C42.0159 49.2608 42.2666 48.3198 42.0159 48.3198L41.4132 48.341Z" fill="black"/>
<path fill-rule="evenodd" clip-rule="evenodd" d="M72.293 49.9746H77.093V49.2821H73.045V47.601H77.045V46.9085H73.045V45.3807H76.9436C77.061 45.3807 77.093 45.349 77.093 45.2327V44.7886C77.093 44.6723 77.061 44.6406 76.9436 44.6406H72.4476C72.3303 44.6406 72.2983 44.6723 72.2983 44.7886V49.9852L72.293 49.9746Z" fill="black"/>
<path fill-rule="evenodd" clip-rule="evenodd" d="M51.7549 49.9745H52.5069V45.3806H54.9069C55.0189 45.3806 55.0563 45.3488 55.0563 45.2325V44.6299H49.3603C49.2429 44.6299 49.2109 44.6616 49.2109 44.7779V45.222C49.2109 45.3383 49.2429 45.37 49.3603 45.37H51.7549V49.9745Z" fill="black"/>
<path fill-rule="evenodd" clip-rule="evenodd" d="M41.4132 48.341H42.0159C42.2666 48.341 42.0159 49.2819 43.0132 49.2819H46.1119C46.5812 49.2819 46.9599 49.0546 46.9599 48.5894V48.1929C46.9599 46.607 41.3652 48.7797 41.3652 46.459V46.1629C41.3652 44.9894 42.0799 44.6299 43.2639 44.6299H45.9626C46.9439 44.6299 47.7119 45.1955 47.7119 46.1629C47.7119 46.2793 47.6746 46.311 47.5626 46.311H47.1092C46.9119 46.311 46.9759 45.37 46.0426 45.37H43.1146C42.4639 45.37 42.1119 45.5021 42.1119 46.1629V46.3638C42.1119 47.7542 47.7119 45.7876 47.7119 48.1454V48.8855C47.6718 49.1868 47.5226 49.4634 47.292 49.6637C47.0614 49.8641 46.7652 49.9745 46.4586 49.9745H42.6612C41.8932 49.9745 41.4132 49.2079 41.4132 48.341Z" fill="black"/>
<path fill-rule="evenodd" clip-rule="evenodd" d="M68.9693 45.3806H65.4439V47.215H68.3079C68.5961 47.2222 68.8837 47.1865 69.1613 47.1092C69.3477 47.0613 69.5082 46.9439 69.6093 46.7815C69.698 46.6404 69.7443 46.4772 69.7426 46.311V46.0625C69.7263 45.8723 69.637 45.6955 69.4931 45.5687C69.3493 45.4418 69.1617 45.3745 68.9693 45.3806ZM64.7026 44.6457H68.4359C69.0535 44.6051 69.6625 44.8063 70.1319 45.2061C70.2578 45.3508 70.3537 45.5186 70.4141 45.7C70.4745 45.8814 70.4982 46.0729 70.4839 46.2634V46.3163C70.4829 46.6486 70.3766 46.9722 70.1799 47.2414C69.8439 47.6537 69.8919 47.3048 70.1799 47.8123C70.3202 48.083 70.3846 48.3861 70.3666 48.6899V50.0273H69.6146V48.489C69.6146 47.9286 69.2519 47.9603 68.8146 47.8969H65.4439V49.9745H64.6973V44.6299L64.7026 44.6457Z" fill="black"/>
<path fill-rule="evenodd" clip-rule="evenodd" d="M57.3033 48.2935C57.2871 48.419 57.2985 48.5466 57.3367 48.6673C57.3749 48.7881 57.439 48.8993 57.5247 48.9932C57.6103 49.0871 57.7154 49.1615 57.8327 49.2114C57.9501 49.2612 58.077 49.2853 58.2046 49.282H60.9513C61.7353 49.282 62.1513 49.1763 62.1513 48.3939V46.311C62.1513 45.719 61.9006 45.3225 61.3033 45.3225H58.402C57.762 45.3225 57.3033 45.6132 57.3033 46.2106V48.2935ZM56.5566 48.5895V46.4379C56.5566 45.3806 57.154 44.6035 58.2046 44.6035H61.0046C62.226 44.6035 62.9033 45.1322 62.9033 46.3375V47.971C62.9033 49.0283 62.7006 50.001 61.65 50.001H58.0553C57.6752 50.0006 57.3093 49.8575 57.0312 49.6006C56.7532 49.3436 56.5836 48.9918 56.5566 48.6159V48.5895Z" fill="black"/>
<path fill-rule="evenodd" clip-rule="evenodd" d="M51.7549 45.3807H49.3603C49.2429 45.3807 49.2109 45.349 49.2109 45.2327V44.7886C49.2109 44.6723 49.2429 44.6406 49.3603 44.6406H55.0563V45.2221C55.0563 45.3384 55.0189 45.3702 54.9069 45.3702H52.5069V49.9746H51.7549V45.3807Z" fill="black"/>
<path fill-rule="evenodd" clip-rule="evenodd" d="M61.5344 37.5406L58.7344 34.6172H59.6837L61.9344 36.8481L64.1264 34.6172H65.129L62.3344 37.5406V39.9671H61.5344V37.5406Z" fill="black"/>
<path fill-rule="evenodd" clip-rule="evenodd" d="M0.378906 38.6772V38.0851H0.97624C1.34957 38.0851 0.73624 39.2745 2.08024 39.2745H4.17624C4.30737 39.2814 4.43843 39.26 4.56038 39.2117C4.68233 39.1634 4.79224 39.0895 4.88252 38.995C4.9728 38.9005 5.04129 38.7876 5.08326 38.6643C5.12522 38.541 5.13966 38.4101 5.12557 38.2807V34.6172H5.82424C5.82424 35.7273 5.82424 36.8375 5.82424 37.9476C5.82424 38.8516 5.60557 39.9565 4.41624 39.9565H1.74957C1.39912 39.9584 1.06135 39.8266 0.806205 39.5885C0.551057 39.3503 0.398067 39.024 0.378906 38.6772H0.378906Z" fill="black"/>
<path fill-rule="evenodd" clip-rule="evenodd" d="M55.9146 35.3365H52.3892V37.1709H55.3386C55.4451 37.1787 55.5521 37.1787 55.6586 37.1709C55.9465 37.171 56.2255 37.0719 56.4479 36.8907C56.6038 36.7262 56.6898 36.5085 56.6879 36.2828V36.0396C56.6756 35.8461 56.5882 35.6648 56.444 35.5338C56.2999 35.4027 56.1101 35.332 55.9146 35.3365ZM51.6479 34.6017H55.3812C55.9958 34.5659 56.6003 34.7688 57.0666 35.1673C57.3217 35.4593 57.4501 35.8393 57.4239 36.2246V36.2722C57.4162 36.6289 57.2928 36.9737 57.0719 37.2555C57.0037 37.34 56.9205 37.4117 56.8266 37.4669C56.9287 37.513 57.0224 37.5755 57.1039 37.652C57.2965 37.9478 57.376 38.3022 57.3279 38.6511V39.9886H56.5759V38.5084C56.5759 37.948 56.2079 37.9797 55.7759 37.911H52.3892V39.9939H51.6426V34.6176L51.6479 34.6017Z" fill="black"/>
<path fill-rule="evenodd" clip-rule="evenodd" d="M38.4043 39.9671H43.0976V39.2745H39.151V34.7652C39.151 34.6542 39.1136 34.6172 39.0016 34.6172H38.5536C38.4363 34.6172 38.4043 34.6542 38.4043 34.7652V39.9671Z" fill="black"/>
<path fill-rule="evenodd" clip-rule="evenodd" d="M80.2227 34.6383L80.9853 34.6172L82.884 39.1741L84.7613 34.6172H85.556L87.3373 39.1741L89.236 34.6172L90.0626 34.6278L87.8866 39.9671L86.852 39.9565L85.1826 35.6586H85.0813L83.332 39.9671L82.4093 39.9512L80.2227 34.6383Z" fill="black"/>
<path d="M90.2676 39.9678L93.1209 34.6338H94.3849L97.3023 39.9678H96.3796L95.7929 38.8682H91.8409L91.2116 39.9678H90.2676ZM95.5049 38.3449L93.7716 35.0726L92.0436 38.3449H95.5049Z" fill="black"/>
<path fill-rule="evenodd" clip-rule="evenodd" d="M100.284 35.3368H97.889C97.7717 35.3368 97.7344 35.3051 97.7344 35.1888V34.7447C97.7344 34.6337 97.7717 34.5967 97.889 34.5967H103.585V35.1888C103.585 35.3051 103.548 35.3368 103.43 35.3368H101.036V39.9466H100.284V35.3368Z" fill="black"/>
<path d="M109.878 38.1911H110.779C110.812 38.4675 110.767 38.7476 110.649 39.0004C110.532 39.2532 110.346 39.4689 110.113 39.6237C109.67 39.8827 108.817 40.0149 107.542 40.0149C106.267 40.0149 105.409 39.8457 104.993 39.5179C104.577 39.1902 104.283 38.4237 104.283 37.3294C104.283 36.2351 104.518 35.5003 104.982 35.1302C105.446 34.7602 106.273 34.6016 107.542 34.6016C108.811 34.6016 109.633 34.739 110.081 35.0192C110.288 35.166 110.452 35.3648 110.556 35.5952C110.66 35.8256 110.7 36.0793 110.673 36.3302H109.766C109.759 36.1479 109.714 35.9691 109.633 35.8052C109.552 35.6413 109.437 35.496 109.297 35.3787C108.733 35.1558 108.125 35.0671 107.521 35.1196C106.577 35.1196 105.947 35.2571 105.638 35.5425C105.329 35.828 105.169 36.4201 105.169 37.3241C105.169 38.2281 105.323 38.8096 105.627 39.0792C105.931 39.3488 106.571 39.4915 107.521 39.4915C108.163 39.5402 108.809 39.4518 109.414 39.2325C109.582 39.1161 109.715 38.9556 109.797 38.769C109.879 38.5823 109.907 38.3767 109.878 38.1752V38.1911ZM112.699 37.0016H117.499V34.6544H118.406V39.9409H117.499V37.5197H112.699V39.9567H111.793V34.6703H112.699V37.0175V37.0016Z" fill="black"/>
<path d="M74.544 37.5564H75.4507V38.0269C75.451 38.2683 75.4169 38.5086 75.3493 38.7405L76.7787 39.5071L76.2773 39.9247L75.0773 39.2692C74.7909 39.6037 74.3865 39.8173 73.9467 39.8665C73.4343 39.9366 72.9171 39.9666 72.4 39.9564C71.7735 39.9677 71.1469 39.9465 70.5227 39.893C70.0916 39.8711 69.6788 39.7137 69.344 39.4436C69.1958 39.2771 69.083 39.0827 69.0125 38.8719C68.9419 38.6612 68.915 38.4385 68.9333 38.2172C68.9158 38.0139 68.9519 37.8096 69.0379 37.6243C69.1239 37.439 69.2569 37.279 69.424 37.1599C69.7858 36.9809 70.1825 36.8817 70.5867 36.8691C70.3643 36.7643 70.1649 36.617 70 36.4356C69.9281 36.2972 69.8848 36.1458 69.8727 35.9905C69.8607 35.8352 69.88 35.6791 69.9297 35.5313C69.9794 35.3836 70.0584 35.2472 70.1621 35.1301C70.2657 35.013 70.392 34.9177 70.5333 34.8497C71.0998 34.6895 71.6891 34.6234 72.2773 34.6541C72.8747 34.6161 73.4738 34.6915 74.0427 34.8761C74.2406 34.9696 74.4046 35.1213 74.5124 35.3105C74.6203 35.4996 74.6667 35.7172 74.6453 35.9334V36.2295H73.7387V36.0339C73.7387 35.6215 73.648 35.3731 73.4613 35.2885C73.0355 35.1668 72.5914 35.1203 72.1493 35.151C71.8237 35.1366 71.4975 35.1633 71.1787 35.2303C71.0584 35.2572 70.9512 35.3245 70.8753 35.4209C70.7995 35.5173 70.7597 35.6368 70.7627 35.759C70.752 35.923 70.8033 36.0851 70.9067 36.2136C71.0628 36.3708 71.2427 36.5028 71.44 36.6048L74.5013 38.2965V37.5616L74.544 37.5564ZM71.168 37.1705C70.7951 37.1999 70.4322 37.3042 70.1013 37.4771C70.0084 37.574 69.9386 37.6903 69.8971 37.8174C69.8556 37.9446 69.8433 38.0794 69.8613 38.2119C69.8353 38.3932 69.8494 38.5779 69.9029 38.7533C69.9563 38.9286 70.0477 39.0902 70.1707 39.2269C70.6386 39.4285 71.1512 39.5068 71.6587 39.4542H72.4587C72.8405 39.4611 73.2223 39.4364 73.6 39.3802C74.032 39.2903 74.2933 39.137 74.384 38.9044L71.184 37.1705H71.168Z" fill="black"/>
</g>
<defs>
<clipPath id="clip0">
<rect width="118" height="49" fill="black" transform="translate(0.378906 0.974609)"/>
</clipPath>
</defs>
</svg>
