<svg width="106" height="40" viewBox="0 0 106 40" fill="none" xmlns="http://www.w3.org/2000/svg"><path d="M20.627 16.492a7.706 7.706 0 00-1.72-1.276c-1.36-.78-2.793-1.206-4.296-1.206-2.364 0-4.441.851-6.088 2.482-1.648 1.63-2.507 3.616-2.507 5.956 0 2.34.86 4.326 2.507 5.957 1.647 1.63 3.724 2.482 6.088 2.482a8.407 8.407 0 004.225-1.135c.502-.284 1.504-.922 2.364-1.915.573-.709.716-.85 1.289-2.056.143-.354.573-1.418.573-2.978 0-1.347.071-11.7.071-16.096V3.516l-2.506 1.347v11.629zM10.242 26.774C9.024 25.568 8.45 24.15 8.45 22.448c0-1.63.573-3.049 1.79-4.325 1.218-1.206 2.579-1.844 4.298-1.844 1.647 0 3.08.567 4.297 1.844 1.146 1.205 1.79 2.623 1.862 4.325.072 1.773-.501 2.979-1.79 4.184-1.361 1.276-2.794 1.844-4.37 1.844-1.718.141-3.079-.497-4.296-1.702zM39.392 16.28c-1.79-1.915-3.94-2.908-6.375-2.908s-4.583.851-6.23 2.482c-1.648 1.63-2.508 3.616-2.508 5.885 0 2.27.86 4.255 2.507 5.957 1.72 1.701 3.725 2.552 6.017 2.552h.286c2.435 0 4.512-.921 6.231-2.765l.43-.425-1.433-1.844-.573.567c-.716.71-.86.78-1.862 1.347-.93.568-2.005.78-3.223.78-.93 0-2.005-.354-3.008-1.063l10.242-10.07-.501-.496zm-6.661-.639c1.36 0 2.507.355 3.581 1.135l-8.451 8.367c-.717-1.064-1.075-2.198-1.075-3.546 0-1.56.573-2.907 1.79-4.112 1.218-1.206 2.58-1.844 4.155-1.844zM62.096 13.656h-2.507v16.167h2.507V13.656zM95.758 15.428c-1.36-1.418-3.151-2.127-5.157-2.127-2.077 0-3.796.638-5.013 1.844v-1.49H83.08v16.168h2.507v-9.29c0-1.347.501-2.41 1.504-3.403 1.003-.993 2.148-1.489 3.51-1.489 1.36 0 2.434.496 3.365 1.418.932.993 1.433 2.127 1.433 3.475v9.289h2.507v-9.29c0-1.985-.716-3.687-2.149-5.105zM78.712 13.656v2.127a7.707 7.707 0 00-1.719-1.276c-1.36-.78-2.793-1.135-4.369-1.135-2.363 0-4.369.851-6.088 2.482-1.647 1.63-2.507 3.687-2.507 5.956 0 2.27.86 4.326 2.507 5.957 1.648 1.63 3.725 2.481 6.088 2.481 1.504 0 2.937-.425 4.297-1.205a7.704 7.704 0 001.72-1.276c0 2.056-.574 3.687-1.648 4.821-1.074 1.135-2.507 1.702-4.226 1.702-1.074 0-2.22-.283-3.438-.992-1.074-.568-1.217-.71-1.718-1.419l-.43-.638-1.934 1.418.43.568c.716.992 1.719 1.843 3.08 2.481 1.289.639 2.65.922 4.01.922 2.507 0 4.513-.78 6.088-2.41 1.504-1.632 2.292-3.759 2.292-6.453V13.656h-2.435zm-1.79 3.829c1.217 1.205 1.79 2.623 1.79 4.325s-.573 3.12-1.79 4.326c-1.218 1.205-2.579 1.772-4.298 1.772-1.647 0-3.08-.567-4.297-1.772-1.218-1.206-1.79-2.624-1.79-4.326 0-1.702.572-3.049 1.79-4.325 1.217-1.206 2.65-1.773 4.297-1.773 1.72 0 3.151.567 4.297 1.773zM41.469 13.656v2.34h7.019l-8.452 13.827h2.937l9.955-16.167h-11.46zM54.647 13.656l-9.884 16.167h12.248v-2.27h-7.879l8.523-13.897h-3.008z" fill="#fff"></path></svg>
