<svg version="1.1" id="Layer_1" xmlns="http://www.w3.org/2000/svg" xmlns:xlink="http://www.w3.org/1999/xlink" x="0px" y="0px" viewBox="0 0 570 238" style="enable-background:new 0 0 570 238;" xml:space="preserve">
<style type="text/css">
	.st0{fill: black;}
</style>
  <g>
	<path class="st0" d="M77.7,190c-45.5,0-69.6-21.5-69.6-62.3v-22.2h44.4v21.7c0,11.9,7.7,24.7,24.7,24.7c16.4,0,26.1-9,26.1-24.2
		V8.4h45.8v118.4c0,8.6-1.6,25.2-12.2,39.3C124.9,181.9,105,190,77.7,190z"></path>
    <path class="st0" d="M218.3,58.1c35.3,0,66.2,13.5,66.2,75.9h-83.6c0,19.8,8.2,28,22.7,28s19.3-11.6,19.3-11.6H284
		c0,17.9-24.6,42-61.9,41.6c-42.5,0-63.3-31.4-63.3-63.8C158.9,95.8,177.2,58.1,218.3,58.1L218.3,58.1z M243.4,108.9
		c0-12.1-6.8-23.7-22.2-23.7c-15,0-20.3,10.6-20.3,23.7H243.4L243.4,108.9z"></path>
    <path class="st0" d="M352.6,58.1c35.3,0,66.2,13.5,66.2,75.9h-83.6c0,19.8,8.2,28,22.7,28s19.3-11.6,19.3-11.6h41.1
		c0,17.9-24.6,42-61.9,41.6c-42.5,0-63.3-31.4-63.3-63.8C293.2,95.8,311.6,58.1,352.6,58.1L352.6,58.1z M377.8,108.9
		c0-12.1-6.8-23.7-22.2-23.7c-15,0-20.3,10.6-20.3,23.7H377.8L377.8,108.9z"></path>
    <path class="st0" d="M429.4,229.7V62.9H471c0,0,0,14.6,0,19c1.5-3.2,2.6-5.4,5.8-9.3c2.8-3.4,10.6-13,31.4-13
		c20.8,0,53.2,14.5,53.2,65.7c0,39.6-19.3,68.6-52.7,68.6c-18.4,0-26.6-6.4-31.4-10.1c-3.1-2.4-4.1-3.5-5.8-5.8c0,3.4,0,51.7,0,51.7
		H429.4L429.4,229.7z M470.5,126.7c-0.5,24.6,4.8,37.7,25.1,37.7s23.2-22.2,23.2-39.1S514.9,92,493.7,92
		C480.6,91.9,471,102.1,470.5,126.7L470.5,126.7z"></path>
    <path class="st0" d="M549.5,229.9c-3.5,0-6.5-1.3-8.9-3.7c-2.4-2.5-3.7-5.5-3.7-9s1.2-6.5,3.7-8.9c2.4-2.4,5.4-3.7,8.9-3.7
		s6.5,1.2,9,3.7c2.5,2.4,3.7,5.5,3.7,8.9c0,3.5-1.2,6.5-3.7,9C556,228.6,553,229.9,549.5,229.9z M549.5,206.7c-2.9,0-5.4,1-7.4,3.1
		c-2,2-3,4.5-3,7.4s1,5.4,3,7.5c2,2,4.5,3.1,7.4,3.1s5.4-1,7.4-3.1c2-2,3-4.6,3-7.5s-1-5.4-3-7.4
		C554.8,207.7,552.3,206.7,549.5,206.7z M552.7,224.2l-0.1-0.3c0,0,0-0.1,0-0.2l-0.1-0.5v-1.1c0-1.5-0.4-2.5-1.2-2.9
		c-0.5-0.3-1.3-0.4-2.6-0.4H547v5.4h-2.9v-14.1h5c1.7,0,3,0.2,3.8,0.5c1.5,0.6,2.3,1.9,2.3,3.7c0,1.3-0.5,2.3-1.4,2.9
		c-0.3,0.2-0.7,0.4-1.1,0.5c0.7,0.3,1.2,0.6,1.6,1.2c0.5,0.8,0.8,1.5,0.8,2.2v1c0,0.3,0,0.6,0,1s0.1,0.6,0.1,0.6l0.2,0.5
		L552.7,224.2L552.7,224.2z M549,216.7c1,0,1.7-0.1,2.2-0.3c0.8-0.3,1.3-1,1.3-1.9s-0.3-1.5-0.8-1.8c-0.6-0.3-1.5-0.5-2.8-0.5h-1.8
		v4.5L549,216.7L549,216.7z"></path>
</g>
</svg>
