<svg xmlns="http://www.w3.org/2000/svg" viewBox="0 0 200 18" width="200" height="18">
	<style>
		tspan { white-space:pre }
		.shp0 { fill: none;stroke: #000000;stroke-width: 1.5 } 
	</style>
	<path id="Layer" class="shp0" d="M15.75 17.35L15.75 0.83L15.82 0.84L28.12 16.57L28.17 16.57L28.18 0.12" />
	<path id="Layer" class="shp0" d="M34.74 0.12L34.74 17.35" />
	<path id="Layer" class="shp0" d="M53.57 3.04C53.17 2.65 52.73 2.29 52.25 1.99C51.78 1.69 51.27 1.44 50.74 1.24C50.22 1.05 49.67 0.91 49.11 0.83C48.56 0.74 47.99 0.72 47.43 0.76C43.49 0.95 39.73 3.62 39.61 8.51C39.6 9.55 39.79 10.58 40.16 11.55C40.54 12.52 41.1 13.41 41.8 14.18C42.51 14.94 43.36 15.56 44.3 16.01C45.24 16.46 46.25 16.72 47.29 16.79C47.86 16.83 48.44 16.8 49 16.71C49.57 16.63 50.13 16.48 50.66 16.27C51.2 16.07 51.71 15.81 52.19 15.49C52.67 15.18 53.11 14.81 53.51 14.4" />
	<path id="Layer" class="shp0" d="M72.16 8.77C72.16 10.93 71.3 12.99 69.77 14.52C68.25 16.04 66.18 16.9 64.03 16.9C61.87 16.9 59.8 16.04 58.28 14.52C56.75 12.99 55.9 10.93 55.9 8.77C55.89 6.61 56.75 4.55 58.27 3.02C59.8 1.5 61.86 0.64 64.02 0.64C66.18 0.64 68.24 1.5 69.77 3.02C71.29 4.55 72.15 6.61 72.15 8.77L72.16 8.77Z" />
	<path id="Layer" class="shp0" d="M64.01 0.65L64.01 16.75" />
	<path id="Layer" class="shp0" d="M94.56 0.11C94.56 0.11 94.48 9.41 94.71 11.02C94.94 12.63 95.55 16.2 101.29 16.45C107.03 16.7 107.94 11.54 108 10.55C108.06 9.56 108 0.11 108 0.11" />
	<path id="Layer" class="shp0" d="M114.66 0.04L114.66 16.34L126.17 16.34" />
	<path id="Layer" class="shp0" d="M128.98 0.08L128.98 17.15" />
	<path id="Layer" class="shp0" d="M133.34 16.41L132.7 16.42L140.77 0.82L141.16 0.8L149.19 16.43L148.54 16.43" />
	<path id="Layer" class="shp0" d="M134.84 11.62L146.37 11.62" />
	<path id="Layer" class="shp0" d="M169.49 0.98L168.94 0.99L175.98 11.36L183.03 0.99L182.42 0.99" />
	<path id="Layer" class="shp0" d="M175.98 11.02L175.98 17.38" />
	<path id="Layer" class="shp0" d="M80.51 1.21L88.19 1.21L88.19 12.21C88.2 12.72 88.12 13.22 87.95 13.7C87.79 14.18 87.54 14.62 87.22 15.01C86.9 15.4 86.51 15.73 86.07 15.99C85.64 16.25 85.16 16.42 84.66 16.51C84.13 16.6 83.6 16.61 83.07 16.54C82.54 16.47 82.02 16.32 81.54 16.1C81.05 15.87 80.61 15.58 80.21 15.22C79.82 14.86 79.48 14.44 79.21 13.98" />
	<path id="Layer" class="shp0" d="M152.71 17.34L152.71 0.92L152.78 0.93L165.36 16.57L165.42 16.56L165.42 0.21" />
</svg>