<svg id="Слой_1" data-name="Слой 1" xmlns="http://www.w3.org/2000/svg" viewBox="0 0 169.45 17.55"><defs><style>.cls-1{fill:none;stroke:black;stroke-miterlimit:10;stroke-width:1.5px;}</style></defs><title>лого-контур2</title><polyline class="cls-1" points="0.75 17.35 0.75 0.83 0.82 0.84 13.12 16.57 13.17 16.57 13.18 0.12"></polyline><line class="cls-1" x1="19.74" y1="0.12" x2="19.74" y2="17.35"></line><path class="cls-1" d="M39.68,3.83a8,8,0,0,0-6.14-2.28c-3.94.19-7.7,2.86-7.82,7.75a8.22,8.22,0,0,0,7.68,8.28,8,8,0,0,0,6.22-2.39" transform="translate(-1.11 -0.79)"></path><path class="cls-1" d="M58.27,9.56A8.13,8.13,0,0,1,42,9.56a8.13,8.13,0,0,1,16.26,0Z" transform="translate(-1.11 -0.79)"></path><line class="cls-1" x1="49.01" y1="0.65" x2="49.01" y2="16.75"></line><path class="cls-1" d="M80.67.9s-.08,9.3.15,10.91.84,5.18,6.58,5.43,6.65-4.91,6.71-5.9S94.11.9,94.11.9" transform="translate(-1.11 -0.79)"></path><polyline class="cls-1" points="99.66 0.04 99.66 16.34 111.17 16.34"></polyline><line class="cls-1" x1="113.98" y1="0.08" x2="113.98" y2="17.15"></line><polyline class="cls-1" points="118.34 16.41 117.7 16.42 125.77 0.82 126.16 0.8 134.19 16.43 133.54 16.43"></polyline><line class="cls-1" x1="119.84" y1="11.62" x2="131.37" y2="11.62"></line><polyline class="cls-1" points="154.49 0.98 153.94 0.99 160.98 11.36 168.03 0.99 167.42 0.99"></polyline><line class="cls-1" x1="160.98" y1="11.02" x2="160.98" y2="17.38"></line><path class="cls-1" d="M66.62,2H74.3V13a4.28,4.28,0,0,1-3.53,4.3,5.27,5.27,0,0,1-5.45-2.53" transform="translate(-1.11 -0.79)"></path><polyline class="cls-1" points="137.71 17.34 137.71 0.92 137.78 0.93 150.36 16.57 150.42 16.56 150.42 0.21"></polyline></svg>
