<svg xmlns="http://www.w3.org/2000/svg" viewBox="0 0 301 27" width="301" height="27">
	<style>
		tspan { white-space:pre }
		.shp0 { fill: #000000 } 
	</style>
	<path id="Layer" fill-rule="evenodd" class="shp0" d="M15.39 26L15.39 0.3L19.59 0.3L19.59 22.4L30.47 22.4L30.47 26L15.39 26ZM55.89 26L53.32 18.86L43.5 18.86L40.98 26L36.55 26L46.17 0.2L50.74 0.2L60.35 26L55.89 26ZM52.21 15.24L49.81 8.25C49.63 7.78 49.38 7.04 49.07 6.03C48.76 5.02 48.55 4.29 48.43 3.82C48.12 5.26 47.66 6.83 47.05 8.54L44.73 15.24L52.21 15.24ZM77.66 26L73.46 26L73.46 3.9L65.9 3.9L65.9 0.3L85.22 0.3L85.22 3.9L77.66 3.9L77.66 26ZM108.75 26L94.22 26L94.22 0.3L108.75 0.3L108.75 3.85L98.42 3.85L98.42 10.85L108.1 10.85L108.1 14.36L98.42 14.36L98.42 22.43L108.75 22.43L108.75 26ZM138.3 26L133.46 26L127.03 15.49L120.54 26L116.04 26L124.57 12.68L116.59 0.3L121.26 0.3L127.2 10.02L133.15 0.3L137.68 0.3L129.65 12.75L138.3 26ZM150.97 26L146.8 26L146.8 0.3L161.3 0.3L161.3 3.85L150.97 3.85L150.97 11.88L160.65 11.88L160.65 15.45L150.97 15.45L150.97 26ZM186.94 26L184.38 18.86L174.55 18.86L172.04 26L167.61 26L177.22 0.2L181.79 0.2L191.41 26L186.94 26ZM183.27 15.24L180.86 8.25C180.69 7.78 180.44 7.04 180.12 6.03C179.82 5.02 179.61 4.29 179.49 3.82C179.17 5.26 178.71 6.83 178.1 8.54L175.78 15.24L183.27 15.24ZM219.99 0.3L219.99 16.93C219.99 18.83 219.57 20.49 218.75 21.92C217.95 23.34 216.77 24.44 215.22 25.21C213.69 25.97 211.85 26.35 209.7 26.35C206.51 26.35 204.04 25.51 202.27 23.82C200.5 22.13 199.61 19.81 199.61 16.86L199.61 0.3L203.83 0.3L203.83 16.56C203.83 18.68 204.32 20.25 205.31 21.25C206.29 22.26 207.8 22.77 209.84 22.77C213.8 22.77 215.78 20.69 215.78 16.53L215.78 0.3L219.99 0.3ZM253.01 26L247.86 26L235.22 5.52L235.08 5.52L235.17 6.66C235.33 8.84 235.41 10.84 235.41 12.64L235.41 26L231.6 26L231.6 0.3L236.7 0.3L249.3 20.67L249.41 20.67C249.38 20.4 249.34 19.43 249.26 17.74C249.19 16.04 249.16 14.71 249.16 13.77L249.16 0.3L253.01 0.3L253.01 26ZM280.78 26L278.21 18.86L268.38 18.86L265.87 26L261.44 26L271.06 0.2L275.63 0.2L285.24 26L280.78 26ZM277.1 15.24L274.7 8.25C274.52 7.78 274.27 7.04 273.96 6.03C273.65 5.02 273.44 4.29 273.32 3.82C273.01 5.26 272.55 6.83 271.94 8.54L269.62 15.24L277.1 15.24Z" />
</svg>