<svg width="271" height="27" viewBox="0 0 271 27" fill="none" xmlns="http://www.w3.org/2000/svg"><path d="M0.392578 26V0.300781H4.59375V22.3965H15.4746V26H0.392578ZM40.8877 26L38.3213 18.8633H28.4951L25.9814 26H21.5517L31.167 0.195312H35.7373L45.3525 26H40.8877ZM37.2138 15.2422L34.8056 8.24609C34.6298 7.77734 34.3838 7.03906 34.0673 6.03125C33.7627 5.02344 33.5517 4.28516 33.4345 3.81641C33.1181 5.25781 32.6552 6.83398 32.0459 8.54492L29.7255 15.2422H37.2138ZM62.662 26H58.4609V3.9043H50.9023V0.300781H70.2206V3.9043H62.662V26ZM93.7528 26H79.2157V0.300781H93.7528V3.85156H83.4169V10.8477H93.1024V14.3633H83.4169V22.4316H93.7528V26ZM123.297 26H118.463L112.029 15.4883L105.543 26H101.043L109.568 12.6758L101.588 0.300781H106.264L112.205 10.0215L118.146 0.300781H122.681L114.648 12.7461L123.297 26ZM135.966 26H131.8V0.300781H146.302V3.85156H135.966V11.8848H145.651V15.4531H135.966V26ZM171.943 26L169.377 18.8633H159.551L157.037 26H152.607L162.222 0.195312H166.793L176.408 26H171.943ZM168.269 15.2422L165.861 8.24609C165.685 7.77734 165.439 7.03906 165.123 6.03125C164.818 5.02344 164.607 4.28516 164.49 3.81641C164.174 5.25781 163.711 6.83398 163.101 8.54492L160.781 15.2422H168.269ZM204.985 0.300781V16.9297C204.985 18.8281 204.575 20.4922 203.755 21.9219C202.946 23.3398 201.768 24.4355 200.221 25.209C198.686 25.9707 196.846 26.3516 194.702 26.3516C191.514 26.3516 189.036 25.5078 187.266 23.8203C185.497 22.1328 184.612 19.8125 184.612 16.8594V0.300781H188.831V16.5605C188.831 18.6816 189.323 20.2461 190.307 21.2539C191.292 22.2617 192.803 22.7656 194.842 22.7656C198.803 22.7656 200.784 20.6855 200.784 16.5254V0.300781H204.985ZM238.009 26H232.859L220.22 5.52148H220.08L220.168 6.66406C220.332 8.84375 220.414 10.8359 220.414 12.6406V26H216.599V0.300781H221.697L234.3 20.6738H234.406C234.383 20.4043 234.336 19.4258 234.265 17.7383C234.195 16.0391 234.16 14.7148 234.16 13.7656V0.300781H238.009V26ZM265.778 26L263.212 18.8633H253.385L250.872 26H246.442L256.057 0.195312H260.628L270.243 26H265.778ZM262.104 15.2422L259.696 8.24609C259.52 7.77734 259.274 7.03906 258.958 6.03125C258.653 5.02344 258.442 4.28516 258.325 3.81641C258.008 5.25781 257.546 6.83398 256.936 8.54492L254.616 15.2422H262.104Z" fill="black"></path></svg>
