<svg width="174.980078125px" height="250.035009766px" xmlns="http://www.w3.org/2000/svg" viewBox="206.25498046875 12.491247558593749 87.4900390625 125.0175048828125" style="background: rgba(0, 0, 0, 0);" preserveAspectRatio="xMidYMid"><defs><filter id="editing-vr"><feFlood flood-color="#444444" flood-opacity="0.7" result="c1"></feFlood><feFlood flood-color="#ffffff" flood-opacity="0.7" result="c3"></feFlood><feComposite operator="in" in="c1" in2="SourceAlpha" result="text-c1"></feComposite><feComposite operator="in" in="c3" in2="SourceAlpha" result="text-c3"></feComposite><feOffset in="text-c1" dx="5" dy="-1" result="text1"></feOffset><feOffset in="text-c3" dx="-5" dy="1" result="text3"></feOffset><feBlend in="SourceGraphic" in2="text1" mode="multiply" result="text4"></feBlend><feBlend in="text4" in2="text3" mode="multiply"></feBlend></filter></defs><g filter="url(#editing-vr)"><g transform="translate(225.1999992132187, 99.13000106811523)"><path d="M24.58-47.49L24.58-47.49L24.58-47.49Q34.05-47.49 41.02-40.64L41.02-40.64L41.02-40.64Q48-33.79 48-23.65L48-23.65L48-23.65Q48-13.50 41.34-6.37L41.34-6.37L41.34-6.37Q34.69 0.77 24.96 0.77L24.96 0.77L24.96 0.77Q15.23 0.77 8.42-6.27L8.42-6.27L8.42-6.27Q1.60-13.31 1.60-23.04L1.60-23.04L1.60-23.04Q1.60-28.35 3.52-32.99L3.52-32.99L3.52-32.99Q5.44-37.63 8.64-40.77L8.64-40.77L8.64-40.77Q11.84-43.90 16-45.70L16-45.70L16-45.70Q20.16-47.49 24.58-47.49ZM12.93-23.36L12.93-23.36L12.93-23.36Q12.93-17.66 16.61-14.11L16.61-14.11L16.61-14.11Q20.29-10.56 24.83-10.56L24.83-10.56L24.83-10.56Q29.38-10.56 33.02-14.02L33.02-14.02L33.02-14.02Q36.67-17.47 36.67-23.30L36.67-23.30L36.67-23.30Q36.67-29.12 32.99-32.64L32.99-32.64L32.99-32.64Q29.31-36.16 24.77-36.16L24.77-36.16L24.77-36.16Q20.22-36.16 16.58-32.61L16.58-32.61L16.58-32.61Q12.93-29.06 12.93-23.36Z" fill="#000000"></path></g></g><style>text {
  font-size: 128px;
  font-family: Arial Black;
  dominant-baseline: central;
  text-anchor: middle;
}</style></svg>
